<svg xmlns="http://www.w3.org/2000/svg" viewBox="0 0 383.16 424.92"><defs><style>.cls-1,.cls-2{fill:none;stroke-linecap:round;stroke-miterlimit:10;stroke-width:40px;}.cls-1{stroke:#000;}.cls-2{stroke:#b61f1c;}.cls-3{fill:#b71c1a;}.cls-4{font-size:60px;font-family:MyriadPro-Bold, Myriad Pro;font-weight:700;}.cls-5{letter-spacing:-0.09em;}.cls-6{letter-spacing:-0.09em;}.cls-7{fill:#b71918;}.cls-8,.cls-9{fill:#b61f1c;}.cls-9{letter-spacing:0em;}</style></defs><g id="Calque_2" data-name="Calque 2"><g id="Calque_2-2" data-name="Calque 2"><path class="cls-1" d="M112.58,305.32A150.61,150.61,0,1,1,329.85,156.16c.45,4.75.69,9.57.69,14.44"/><path class="cls-1" d="M179.54,320.56A150.59,150.59,0,0,1,29,170"/><path class="cls-2" d="M253.59,196.62c-10.27,27-38.78,51.91-73.5,51.74-39.92-.19-78-33.51-78-78a78,78,0,0,1,78-78c37.31,0,63.31,28.86,70.47,44.46"/><path d="M330.53,322.29h0c-11,0-20-10.08-20-22.51v-246c0-12.44,8.94-22.51,20-22.51h0c11,0,20,10.07,20,22.51v246C350.49,312.21,341.56,322.29,330.53,322.29Z"/><path class="cls-3" d="M210.16,151.36h0a20,20,0,0,1,20,20V242a0,0,0,0,1,0,0H190.19a0,0,0,0,1,0,0V171.33a20,20,0,0,1,20-20Z" transform="translate(13.46 406.86) rotate(-90)"/><text class="cls-4" transform="translate(0 409.91)">A<tspan class="cls-5" x="39.36" y="0">L</tspan><tspan class="cls-6" x="64.62" y="0">Y</tspan><tspan x="95.28" y="0">AH</tspan><tspan class="cls-7" x="175.98" y="0"> </tspan><tspan class="cls-8" x="188.1" y="0">G</tspan><tspan class="cls-9" x="229.02" y="0">R</tspan><tspan class="cls-8" x="264.36" y="0">OUP</tspan></text></g></g></svg>